# xmcd
#
# Track frame offsets: 
#        150
#        19845
#        33265
#        43857
#        60519
#        77631
#        94218
#        110070
#        122481
#        141781
#        156492
#
# Disc length: 2287 seconds
#
# Revision: 0
# Processed by: cddbd v1.5.2PL0 Copyright (c) Steve Scherf et al.
# Submitted via: ExactAudioCopyFreeDBPlugin 1.0
#
DISCID=9008ed0b
DTITLE=Denver - Denver
DYEAR=2011
DGENRE=Country
TTITLE0=Toledo
TTITLE1=Hot Denver #2
TTITLE2=Ballroom Slip-cut
TTITLE3=Dancin' With The Moon
TTITLE4=Keep Your Eye Out
TTITLE5=Reno
TTITLE6=I'm Goin' Home
TTITLE7=The Way It Is
TTITLE8=Hot Denver #1
TTITLE9=Rabbit Dancin'
TTITLE10=Ridin' Alone (San Antone)
EXTD=
EXTT0=
EXTT1=
EXTT2=
EXTT3=
EXTT4=
EXTT5=
EXTT6=
EXTT7=
EXTT8=
EXTT9=
EXTT10=
PLAYORDER=
